<svg width="60" height="50" viewBox="0 0 60 50" fill="none" xmlns="http://www.w3.org/2000/svg">
<path fill-rule="evenodd" clip-rule="evenodd" d="M14.402 27.3407L22.2763 39.4656C22.5496 39.9084 22.9081 40.2925 23.3311 40.5957C23.7541 40.8988 24.233 41.1149 24.7402 41.2315C25.2473 41.3481 25.7726 41.3627 26.2855 41.2747C26.7983 41.1866 27.2886 40.9976 27.7279 40.7185C28.1671 40.4395 28.5465 40.076 28.8441 39.6491C29.1418 39.2222 29.3517 38.7405 29.4616 38.2319C29.5716 37.7233 29.5794 37.1979 29.4847 36.6862C29.39 36.1745 29.1946 35.6867 28.9099 35.2511L19.444 20.6753C19.3136 20.4741 19.1652 20.2851 19.0006 20.1106L28.4535 5.23438L51.7153 41.8342C52.2068 42.5754 52.505 43.4279 52.5827 44.3138C52.6604 45.1998 52.5151 46.0911 52.1602 46.9066C51.743 47.8277 51.0696 48.6092 50.2204 49.1581C49.3712 49.7069 48.382 49.9997 47.3709 50.0017H-0.00195312L14.402 27.3407Z" fill="#0F1542"></path>
<path fill-rule="evenodd" clip-rule="evenodd" d="M56.9803 39.6357L31.7875 0L29.582 3.4663L53.3508 40.8562C53.5906 41.2208 53.7947 41.6078 53.9603 42.0116C54.3258 42.8928 54.5122 43.8379 54.5085 44.7919C54.5047 45.7459 54.311 46.6895 53.9386 47.5678L54.6896 47.2342C54.9249 47.1289 55.1523 47.0068 55.3699 46.8688C55.9506 46.5 56.4529 46.0204 56.8482 45.4574C57.2434 44.8944 57.5239 44.259 57.6736 43.5876C57.8233 42.9162 57.8392 42.2219 57.7205 41.5443C57.6018 40.8667 57.3508 40.2192 56.9817 39.6386" fill="#E50019"></path>
<path fill-rule="evenodd" clip-rule="evenodd" d="M11.4532 18.048C12.1643 17.5846 12.9968 17.3427 13.8455 17.3528C14.6942 17.363 15.5207 17.6247 16.2205 18.1049C16.9203 18.5852 17.4619 19.2622 17.7766 20.0505C18.0914 20.8387 18.1651 21.7025 17.9886 22.5327C17.812 23.3629 17.3931 24.122 16.7848 24.7139C16.1766 25.3058 15.4063 25.7038 14.5717 25.8577C13.737 26.0116 12.8755 25.9143 12.0961 25.5782C11.3168 25.2421 10.6547 24.6822 10.1938 23.9696C9.57859 23.0165 9.36574 21.8586 9.60174 20.749C9.83773 19.6394 10.5034 18.6683 11.4532 18.048Z" fill="#E50019"></path>
</svg>